<?xml version="1.0" encoding="iso-8859-1"?>
<!-- Generator: Adobe Illustrator 16.0.0, SVG Export Plug-In . SVG Version: 6.00 Build 0)  -->
<!DOCTYPE svg PUBLIC "-//W3C//DTD SVG 1.1//EN" "http://www.w3.org/Graphics/SVG/1.1/DTD/svg11.dtd">
<svg version="1.1" id="Capa_1" xmlns="http://www.w3.org/2000/svg" xmlns:xlink="http://www.w3.org/1999/xlink" x="0px" y="0px"
	 width="579.121px" height="579.121px" viewBox="0 0 579.121 579.121" style="enable-background:new 0 0 579.121 579.121;"
	 xml:space="preserve">
<g>
	<g>
		<path d="M404.349,348.178c7.099,14.423,24.867,24.157,40.367,21.109c21.22-4.17,33.293-25.602,29.245-46.063
			c-7.507-37.956-60.11-33.333-70.89,0.441c-24.268,1.15-47.034,10.767-64.264,26.81c-2.477-12.759-5.329-25.455-8.658-38.059
			c25.541-19.82,51.082-39.641,76.622-59.465c4.28-3.321,24.027-1.281,31.127-4.398c9.897-4.345,18.503-11.53,24.092-20.833
			c27.675-46.055-27.348-87.202-70.38-71.959c-28.984,10.266-43.562,38.85-32.023,64.839c3.855,8.687,10.775,16.014,16.952,24.9
			c-17.01,13.203-34.023,26.406-51.037,39.609c-5.589-21.334-12.599-42.175-20.942-62.42c-1.392-7.752-2.44-15.582-3.011-23.509
			c6.911-24.019,13.823-48.038,20.734-72.057c3.644,0.041,7.389-0.017,11.114-0.461c33.925-4.048,54.826-36.1,43.546-66.056
			c-8.295-22.028-33.188-36.287-59.214-33.925c-26.246,2.383-46.145,19.38-50.616,43.244c-3.554,18.96,5.312,38.189,24.852,49.348
			c2.574,1.469,4.369,2.97,5.638,4.57c-5.026,17.475-10.057,34.949-15.083,52.428c-17.213-31.82-37.895-61.743-61.82-89.177
			c17.923-16.903,22.881-35.79,14.415-55.455c-9.437-21.918-34.39-34.427-62.077-31.11c-24.68,2.954-43.513,20.082-47.442,43.138
			c-5.569,32.689,28.604,63.334,64.954,56.243c3.072-0.6,5.679-0.783,7.997-0.648c12.199,13.664,23.583,27.936,34.019,42.819
			c1.922,3.109,3.905,6.332,5.92,9.625c-10.477-5.839-21.726-10.372-33.627-13.464c-7.136-23.954-32.378-38.666-59.449-33.815
			c-27.234,4.88-43.534,24.884-40.707,49.968c2.012,17.854,15.227,32.081,35.104,37.777c21.098,6.051,44.664-0.963,57.226-17.177
			c2.423-3.125,4.472-6.605,7.495-11.212c21.077,6.708,39.796,18.572,54.492,35.345c9.176,27.426,18.083,54.941,27.209,82.383
			c1.191,3.586,2.726,7.009,4.173,10.261c-0.134,0.131-0.269,0.261-0.399,0.396c-18.266-16.915-38.789-31.183-61.429-42.562
			c2.583-18.266-7.36-33.236-25.129-40.494c-20.078-8.201-43.733-2.725-56.202,13.007c-10.727,13.533-10.983,28.878-1.354,44.047
			c1.758,3.472,4.067,6.655,7.021,9.311c10.747,9.67,24.395,12.983,37.687,9.633c8.674-1.412,17.581-5.577,28.181-12.934
			c28.748,14.847,54.084,34.635,74.99,59.176c2.163,12.387,3.778,24.811,4.949,37.246c-19.282-13.945-40.755-24.292-63.958-30.624
			c-0.449-9.539-4.174-19.087-10.698-26.77c-30.319-35.687-82.779,12.338-59.621,49.817c12.101,19.584,41.191,21.758,57.879,6.977
			c2.191-1.942,4.072-4.056,5.671-6.287c27.369,7.523,51.747,20.926,72.729,40.311c1.241,53.052-6.417,110.07-22.701,161.217
			c-3.104,9.755,5.614,15.863,13.513,14.998c1.387,0.555,2.962,0.885,4.757,0.885h32.824c7.784,0,11.726-5.92,11.877-11.95
			c0.313-0.808,0.575-1.681,0.738-2.664c9.706-59.286,10.474-123.281,2.37-182.119C357.474,362.078,379.064,349.087,404.349,348.178
			z"/>
	</g>
</g>
<g>
</g>
<g>
</g>
<g>
</g>
<g>
</g>
<g>
</g>
<g>
</g>
<g>
</g>
<g>
</g>
<g>
</g>
<g>
</g>
<g>
</g>
<g>
</g>
<g>
</g>
<g>
</g>
<g>
</g>
</svg>
